<?xml version="1.0" standalone="no"?>
<!DOCTYPE svg PUBLIC "-//W3C//DTD SVG 20010904//EN"
 "http://www.w3.org/TR/2001/REC-SVG-20010904/DTD/svg10.dtd">
<svg version="1.0" xmlns="http://www.w3.org/2000/svg"
 width="512.000000pt" height="512.000000pt" viewBox="0 0 512.000000 512.000000"
 preserveAspectRatio="xMidYMid meet">
<metadata>
Created by potrace 1.11, written by Peter Selinger 2001-2013
</metadata>
<g transform="translate(0.000000,512.000000) scale(0.100000,-0.100000)"
fill="#000000" stroke="none">
<path d="M1612 5105 c-48 -35 -59 -93 -26 -143 20 -30 43 -38 137 -46 163 -14
318 -85 433 -200 67 -68 137 -170 150 -220 5 -21 -1 -27 -48 -48 -195 -91
-344 -291 -384 -518 -18 -97 -3 -250 32 -343 8 -20 14 -41 14 -45 0 -5 -39
-23 -87 -42 -291 -110 -615 -300 -892 -524 -78 -63 -314 -293 -367 -359 -135
-167 -230 -331 -283 -489 -104 -307 -41 -600 168 -790 106 -96 263 -162 403
-171 221 -13 502 86 738 261 l45 33 6 -23 c58 -199 99 -325 139 -424 175 -437
391 -708 632 -790 l45 -15 -2 -66 c-2 -81 22 -123 75 -136 78 -19 122 28 126
131 3 86 2 82 19 82 27 0 129 51 185 92 237 177 459 577 590 1066 22 81 23 83
44 68 152 -110 310 -194 441 -236 439 -139 820 61 932 490 2 8 6 62 8 120 16
455 -369 972 -1045 1404 -154 98 -436 241 -551 280 l-86 28 23 63 c20 54 27
93 39 217 3 39 -20 185 -38 234 -65 177 -192 321 -352 399 -30 15 -55 33 -55
41 0 16 41 91 81 150 104 153 348 282 534 283 54 0 91 15 110 45 34 52 13 126
-43 147 -29 12 -186 4 -224 -10 -13 -5 -27 -9 -33 -10 -74 -11 -190 -63 -286
-129 -134 -91 -245 -221 -310 -367 l-34 -75 -50 0 -51 0 -27 63 c-64 147 -195
301 -326 386 -146 94 -272 135 -446 147 -64 4 -84 2 -103 -11z m1048 -795
c181 -34 350 -196 390 -375 23 -100 10 -237 -28 -314 l-17 -33 -120 -3 c-140
-2 -198 -18 -272 -75 l-49 -37 -34 28 c-41 35 -107 67 -158 76 -20 5 -85 8
-143 8 l-106 0 -16 35 c-63 145 -51 319 30 458 101 172 322 270 523 232z
m-285 -946 c191 -98 61 -591 -298 -1124 -243 -362 -529 -640 -793 -773 -260
-131 -493 -133 -659 -7 -69 53 -125 128 -157 209 -32 82 -32 256 1 360 91 295
328 587 716 883 267 202 615 382 867 447 140 36 259 38 323 5z m715 -8 c426
-113 1017 -506 1322 -881 256 -313 338 -622 227 -851 -145 -301 -525 -342
-900 -99 -117 76 -180 128 -298 243 -304 298 -599 753 -715 1102 -34 102 -39
122 -55 223 -17 100 8 219 52 255 57 48 206 51 367 8z m-449 -802 c31 -66 71
-144 89 -173 17 -30 29 -55 27 -57 -2 -3 -90 -3 -195 -2 l-192 3 13 25 c8 14
36 68 64 120 27 52 65 130 84 173 30 72 34 77 43 55 5 -12 35 -77 67 -144z
m330 -546 c74 -99 174 -223 218 -268 13 -13 -21 -15 -301 -18 -174 -1 -462 -1
-640 0 l-323 3 46 50 c50 55 185 225 236 299 l33 46 324 0 324 0 83 -112z
m315 -505 c-3 -10 -16 -58 -30 -108 -26 -95 -92 -288 -107 -317 -9 -17 -47
-18 -585 -18 l-575 0 -18 43 c-23 52 -96 275 -111 337 -6 25 -13 53 -16 63 -5
16 34 17 721 17 687 0 726 -1 721 -17z m-247 -665 c-101 -189 -238 -345 -357
-408 -65 -34 -167 -34 -232 -1 -78 41 -136 91 -209 181 -20 25 -39 47 -43 48
-5 2 -8 8 -8 12 0 5 -13 28 -29 52 -15 24 -40 64 -55 91 l-28 47 486 0 487 0
-12 -22z"/>
<path d="M1849 3077 c-161 -73 -383 -206 -554 -333 -118 -87 -228 -187 -238
-217 -18 -54 8 -101 68 -121 45 -16 67 -9 120 41 138 127 392 299 595 400 215
108 218 110 225 154 11 63 -35 119 -98 119 -12 0 -65 -19 -118 -43z"/>
<path d="M800 2293 c-26 -24 -33 -38 -33 -67 0 -107 137 -143 185 -48 31 62
-7 129 -79 139 -34 4 -45 1 -73 -24z"/>
<path d="M3115 3111 c-37 -15 -58 -49 -58 -91 0 -52 25 -79 101 -110 69 -28
281 -137 303 -156 8 -8 19 -14 23 -14 18 0 360 -247 386 -279 23 -29 76 -61
100 -61 83 0 132 79 91 146 -60 98 -480 389 -736 509 -138 64 -169 72 -210 56z"/>
<path d="M4211 2304 c-13 -9 -30 -32 -38 -51 -12 -31 -12 -38 4 -71 43 -88
156 -78 182 16 24 81 -79 154 -148 106z"/>
</g>
</svg>
